<?xml version="1.0" encoding="utf-8"?>
<!-- Generator: Adobe Illustrator 17.0.0, SVG Export Plug-In . SVG Version: 6.00 Build 0)  -->
<!DOCTYPE svg PUBLIC "-//W3C//DTD SVG 1.1//EN" "http://www.w3.org/Graphics/SVG/1.1/DTD/svg11.dtd">
<svg version="1.1" id="Layer_1" xmlns="http://www.w3.org/2000/svg" xmlns:xlink="http://www.w3.org/1999/xlink" x="0px" y="0px"
	 width="78px" height="78px" viewBox="0 0 78 78" enable-background="new 0 0 78 78" xml:space="preserve">
<rect fill="#91B0C1" width="78" height="78"/>
<path fill="#3E5275" d="M72.441,78v-9.633C62.047,48.655,28.895,54.21,23.339,55.143C17.784,56.075,7.57,66.754,7.57,66.754
	C6.073,69.748,5.918,74.58,6.035,78H72.441z"/>
<ellipse fill="#EACEB2" cx="18.58" cy="38.088" rx="1.974" ry="4.249"/>
<ellipse fill="#EACEB2" cx="59.27" cy="38.088" rx="1.974" ry="4.249"/>
<path fill="#EACEB2" d="M58.917,38.606c0,10.805-3.913,19.563-19.563,19.563S19.79,49.41,19.79,38.606s3.913-19.563,19.563-19.563
	S58.917,27.801,58.917,38.606z"/>
<path fill="#3E5275" d="M20.287,29.397c0,0,17.246-2.998,28.534-2.743s14.008-1.372,11.932-4.507s-9.598-10.776-23.865-9.405
	S10.171,26.262,20.287,29.397z"/>
<path fill="#3E5275" d="M38.316,12.579c0,0,0.778-4.324,3.761-4.713c2.983-0.389,3.632,0.519,2.594,1.297
	c-1.038,0.778-3.17,1.167-2.947,2.724c0.223,1.556,0,3.891,0,3.891L39,12.614"/>
<circle fill="#FFFFFF" cx="33.952" cy="36.077" r="3.48"/>
<circle fill="#2A395B" cx="33.952" cy="36.077" r="1.673"/>
<circle fill="#FFFFFF" cx="42.72" cy="33.839" r="3.48"/>
<circle fill="#2A395B" cx="42.72" cy="33.839" r="1.673"/>
<path fill="#3E5275" d="M26.164,48.99c-0.07-0.698,3.502-6.875,10.7-6.648c7.198,0.227,4.069,2.421,1.451,3.756
	c-2.618,1.335-6.315,2.113-7.288,2.891C30.055,49.768,26.359,50.935,26.164,48.99z"/>
<path fill="#3E5275" d="M50.904,48.99c0.07-0.698-3.502-6.875-10.7-6.648c-7.198,0.227-4.069,2.421-1.451,3.756
	c2.618,1.335,6.315,2.113,7.288,2.891C47.013,49.768,50.709,50.935,50.904,48.99z"/>
</svg>
