<?xml version="1.0" encoding="utf-8"?>
<!-- Generator: Adobe Illustrator 17.0.0, SVG Export Plug-In . SVG Version: 6.00 Build 0)  -->
<!DOCTYPE svg PUBLIC "-//W3C//DTD SVG 1.1//EN" "http://www.w3.org/Graphics/SVG/1.1/DTD/svg11.dtd">
<svg version="1.1" id="Layer_1" xmlns="http://www.w3.org/2000/svg" xmlns:xlink="http://www.w3.org/1999/xlink" x="0px" y="0px"
	 width="78px" height="78px" viewBox="0 0 78 78" enable-background="new 0 0 78 78" xml:space="preserve">
<rect fill="#91B0C1" width="78" height="78"/>
<path fill="#6F4E72" d="M61.795,78c0.148-1.9,0.226-4.072,0.226-6.564c0-8.723-10.125-15.794-22.614-15.794
	s-22.614,7.071-22.614,15.794c0,2.439,0.047,4.614,0.136,6.564H61.795z"/>
<path fill="#CAE0EA" d="M39.797,60.023c-0.134-0.193-6.352,1.286-8.402,3.746l-8.063-6.696c0,0,3.209-2.05,8.232-2.87
	S39.797,60.023,39.797,60.023z"/>
<path fill="#CAE0EA" d="M39.105,60.023c0.134-0.193,6.352,1.286,8.402,3.746l8.063-6.696c0,0-3.209-2.05-8.232-2.87
	S39.105,60.023,39.105,60.023z"/>
<ellipse fill="#EACEB2" cx="59.473" cy="36.622" rx="3.877" ry="4.609"/>
<ellipse fill="#EACEB2" cx="20.742" cy="36.622" rx="3.877" ry="4.609"/>
<ellipse fill="#EACEB2" cx="40.23" cy="38.722" rx="19.243" ry="20.229"/>
<path fill="#C66422" d="M35.505,12.281c8.361-0.538,17.001-2.406,18.604,5.453v1.443c0,0,4.812-2.085,5.613,4.571
	s0.321,12.911-0.642,14.034c-0.962,1.123-2.245,0.802-2.245,0.802s2.085-14.595-6.896-15.878c0,0-1.443-1.722-4.33,1.064
	s-6.576,9.682-22.935,7.918l-0.642,6.896c0,0-3.208-1.443-3.208-3.368s-0.321-12.51,0.642-14.435c0.962-1.925,2.566-4.01,2.566-4.01
	S25.194,12.944,35.505,12.281z"/>
<circle fill="#FFFFFF" stroke="#3E5275" stroke-miterlimit="10" cx="32.589" cy="39.127" r="5.473"/>
<circle fill="#2A395B" cx="33.615" cy="38.507" r="1.025"/>
<circle fill="#FFFFFF" stroke="#3E5275" stroke-miterlimit="10" cx="46.302" cy="39.127" r="5.473"/>
<circle fill="#2A395B" cx="45.276" cy="38.507" r="1.025"/>
<path fill="none" stroke="#3E5275" stroke-miterlimit="10" d="M37.81,37.482c0,0,1.02-1.938,3.019,0"/>
<path fill="#CEAE91" d="M39.797,51.417c-1.214,0-2.236-0.489-2.621-1.167c-0.104,0.183-0.171,0.378-0.171,0.583
	c0,0.966,1.25,1.75,2.792,1.75c1.542,0,2.792-0.784,2.792-1.75c0-0.206-0.067-0.4-0.171-0.583
	C42.034,50.928,41.011,51.417,39.797,51.417z"/>
<path fill="#C66422" d="M29.324,16.772c0,0-4.17-2.245-2.406-7.859c0,0,7.538,4.17,15.878,3.368"/>
</svg>
