<?xml version="1.0" encoding="utf-8"?>
<!-- Generator: Adobe Illustrator 17.0.0, SVG Export Plug-In . SVG Version: 6.00 Build 0)  -->
<!DOCTYPE svg PUBLIC "-//W3C//DTD SVG 1.1//EN" "http://www.w3.org/Graphics/SVG/1.1/DTD/svg11.dtd">
<svg version="1.1" id="CONTENT" xmlns="http://www.w3.org/2000/svg" xmlns:xlink="http://www.w3.org/1999/xlink" x="0px" y="0px"
	 width="70px" height="78.931px" viewBox="0 0 70 78.931" enable-background="new 0 0 70 78.931" xml:space="preserve">
<path fill="#46AECB" d="M69.167,19.716c-0.506-0.871-1.201-1.632-1.966-2.074L37.798,0.667c-1.539-0.889-4.057-0.889-5.597,0
	L2.798,17.643c-0.768,0.443-1.465,1.208-1.972,2.084C0.317,20.606,0,21.598,0,22.489v33.952c0,0.883,0.312,1.865,0.813,2.739
	c0.508,0.886,1.211,1.661,1.985,2.108l29.403,16.976c1.539,0.889,4.057,0.889,5.597,0l29.403-16.976
	c0.772-0.445,1.472-1.216,1.98-2.097C69.686,58.314,70,57.328,70,56.441V22.489C70,21.595,69.68,20.599,69.167,19.716z"/>
<g id="XMLID_462_">
	<path id="XMLID_467_" fill="#3B9CB2" d="M34.988,39.45l34.193,19.742c-0.507,0.881-1.208,1.652-1.98,2.097L37.798,78.264
		c-1.539,0.889-4.058,0.889-5.597,0L2.798,61.288c-0.775-0.447-1.477-1.222-1.985-2.108L34.988,39.45z"/>
	<path id="XMLID_466_" fill="#3EA8C1" d="M70,22.489c0-0.894-0.32-1.89-0.833-2.773L34.988,39.45l34.193,19.742
		C69.686,58.314,70,57.328,70,56.441V22.489z"/>
	<path id="XMLID_463_" fill="#46AECB" d="M67.202,17.643L37.798,0.666c-1.539-0.889-4.058-0.889-5.597,0L2.798,17.643
		c-0.768,0.443-1.465,1.208-1.972,2.084C0.317,20.606,0,21.598,0,22.489v33.952c0,0.883,0.312,1.865,0.813,2.739L34.988,39.45
		l34.179-19.733C68.661,18.845,67.966,18.084,67.202,17.643z"/>
</g>
<path id="XMLID_460_" fill="#FFFFFF" d="M55.444,51.26C51.363,58.318,43.739,63.071,35,63.071
	c-13.037,0-23.605-10.569-23.605-23.605S21.963,15.86,35,15.86c8.729,0,16.346,4.742,20.431,11.787l-9.948,5.744
	c-2.098-3.612-6.005-6.042-10.482-6.042c-6.692,0-12.117,5.425-12.117,12.117S28.308,51.582,35,51.582
	c4.487,0,8.402-2.441,10.496-6.066L55.444,51.26z"/>
<g id="XMLID_446_">
	<g>
		<path fill="#FFFFFF" d="M55.656,35.415h-2.693v2.693h-2.693V40.8h2.693v2.693h2.693V40.8h2.693v-2.692h-2.693V35.415z
			 M65.35,38.108v-2.693h-2.693v2.693h-2.693V40.8h2.693v2.693h2.693V40.8h2.693v-2.692H65.35z"/>
	</g>
</g>
</svg>
