<?xml version="1.0" encoding="utf-8"?>
<!-- Generator: Adobe Illustrator 17.0.0, SVG Export Plug-In . SVG Version: 6.00 Build 0)  -->
<!DOCTYPE svg PUBLIC "-//W3C//DTD SVG 1.1//EN" "http://www.w3.org/Graphics/SVG/1.1/DTD/svg11.dtd">
<svg version="1.1" id="Layer_1" xmlns="http://www.w3.org/2000/svg" xmlns:xlink="http://www.w3.org/1999/xlink" x="0px" y="0px"
	 width="78px" height="78px" viewBox="0 0 78 78" enable-background="new 0 0 78 78" xml:space="preserve">
<rect fill="#91B0C1" width="78" height="78"/>
<path fill="#3E5275" d="M25.038,78h27.925c4.691-3.969,7.672-9.895,7.672-16.52c0-11.948-9.686-21.635-21.635-21.635
	S17.365,49.531,17.365,61.48C17.365,68.105,20.347,74.031,25.038,78z"/>
<circle fill="#3E5275" cx="27.835" cy="26.184" r="7.434"/>
<path fill="#3E5275" d="M25.307,33.169c0,0,4.56,2.679,5.055,8.627h4.906c0,0-1.536-5.352,0-11.696s-0.774-7.173-4.906-9.172"/>
<circle fill="#FFFFFF" cx="27.835" cy="26.184" r="5.257"/>
<circle fill="#3E5275" cx="27.835" cy="26.184" r="2.528"/>
<circle fill="#3E5275" cx="27.835" cy="26.184" r="7.434"/>
<path fill="#3E5275" d="M25.307,33.169c0,0,4.56,2.679,5.055,8.627h4.906c0,0-1.536-5.352,0-11.696s-0.774-7.173-4.906-9.172"/>
<circle fill="#FFFFFF" cx="27.835" cy="26.184" r="5.257"/>
<circle fill="#3E5275" cx="27.835" cy="26.184" r="2.528"/>
<path fill="#3E5275" d="M20.519,24.878c0,0-3.241-0.329-4.282-3.154c0,0,3.511,1.773,5.427,1.577"/>
<path fill="#3E5275" d="M22.164,22.174c0,0-2.966-1.347-3.05-4.356c0,0,2.761,2.801,4.639,3.228"/>
<path fill="#3E5275" d="M24.06,19.86c0,0-1.848-2.682-0.37-5.305c0,0,0.923,3.823,2.313,5.156"/>
<circle fill="#3E5275" cx="50.317" cy="26.184" r="7.434"/>
<path fill="#3E5275" d="M52.845,33.169c0,0-4.56,2.679-5.055,8.627h-4.906c0,0,1.536-5.352,0-11.696s0.774-7.173,4.906-9.172"/>
<circle fill="#FFFFFF" cx="50.317" cy="26.184" r="5.257"/>
<circle fill="#3E5275" cx="50.317" cy="26.184" r="2.528"/>
<circle fill="#3E5275" cx="50.317" cy="26.184" r="7.434"/>
<path fill="#3E5275" d="M52.845,33.169c0,0-4.56,2.679-5.055,8.627h-4.906c0,0,1.536-5.352,0-11.696s0.774-7.173,4.906-9.172"/>
<circle fill="#FFFFFF" cx="50.317" cy="26.184" r="5.257"/>
<circle fill="#3E5275" cx="50.317" cy="26.184" r="2.528"/>
<path fill="#3E5275" d="M57.632,24.878c0,0,3.241-0.329,4.282-3.154c0,0-3.511,1.773-5.427,1.577"/>
<path fill="#3E5275" d="M55.988,22.174c0,0,2.966-1.347,3.05-4.356c0,0-2.761,2.801-4.639,3.228"/>
<path fill="#3E5275" d="M54.092,19.86c0,0,1.848-2.682,0.37-5.305c0,0-0.923,3.823-2.313,5.156"/>
<path fill="#CD99C5" d="M41.2,53.49c-1.665,0.154-2.022,1.136-2.2,1.818c-0.177-0.682-0.534-1.664-2.2-1.818
	c-3.94-0.365-5.516,2.496-10.048,3.499c0,0,3.186,0.562,5.061,2.499c1.784,1.843,3.53,3.442,6.815,3.594v0.03l0.02-0.028
	c0.074,0.003,0.144,0.011,0.219,0.013l0.011,0.015c0.043,0,0.08-0.007,0.122-0.007c0.043,0,0.079,0.007,0.122,0.007l0.011-0.015
	c0.076-0.002,0.145-0.01,0.219-0.013l0.02,0.028v-0.03c3.286-0.152,5.032-1.751,6.815-3.594c1.874-1.937,5.061-2.499,5.061-2.499
	C46.715,55.986,45.139,53.125,41.2,53.49z"/>
</svg>
