<?xml version="1.0" encoding="utf-8"?>
<!-- Generator: Adobe Illustrator 17.0.0, SVG Export Plug-In . SVG Version: 6.00 Build 0)  -->
<!DOCTYPE svg PUBLIC "-//W3C//DTD SVG 1.1//EN" "http://www.w3.org/Graphics/SVG/1.1/DTD/svg11.dtd">
<svg version="1.1" id="Layer_1" xmlns="http://www.w3.org/2000/svg" xmlns:xlink="http://www.w3.org/1999/xlink" x="0px" y="0px"
	 width="78px" height="78px" viewBox="0 0 78 78" enable-background="new 0 0 78 78" xml:space="preserve">
<rect fill="#91B0C1" width="78" height="78"/>
<path fill="#5E7392" d="M19.874,37.706c0,0-3.333-0.466-8.179-0.583c0,0,6.353,0.784,8.179,3.382"/>
<path fill="#5E7392" d="M19.376,40.237c0,0-3.361,0.168-8.143,0.961c0,0,6.387-0.422,8.668,1.788"/>
<path fill="#5E7392" d="M21.332,35.247c0,0-3.112-1.28-7.777-2.599c0,0,5.958,2.339,7.081,5.309"/>
<path fill="#5E7392" d="M59.684,37.706c0,0,3.333-0.466,8.179-0.583c0,0-6.353,0.784-8.179,3.382"/>
<path fill="#5E7392" d="M60.182,40.237c0,0,3.361,0.168,8.143,0.961c0,0-6.387-0.422-8.668,1.788"/>
<path fill="#5E7392" d="M58.226,35.247c0,0,3.112-1.28,7.777-2.599c0,0-5.958,2.339-7.081,5.309"/>
<g>
	<path fill="#CAD7EA" d="M61.81,78c0,0,4.784-20.899-0.911-38.894C55.204,21.11,51.08,13.821,48.245,16.782
		c-1.372,1.433-2.508,3.45-3.319,5.154c-3.395-0.85-7.179-0.419-9.822,0.117c-0.814-1.727-1.972-3.805-3.376-5.271
		c-2.835-2.961-6.96,4.328-12.654,22.323C13.379,57.101,18.162,78,18.162,78"/>
</g>
<circle fill="#FFFFFF" cx="30.453" cy="31.672" r="2.923"/>
<circle fill="#2A395B" cx="30.453" cy="31.672" r="1.406"/>
<circle fill="#FFFFFF" cx="46.542" cy="31.672" r="2.923"/>
<circle fill="#2A395B" cx="46.542" cy="31.672" r="1.406"/>
<path fill="#2A395B" d="M38.328,40.896c0,0,0.219-1.462-0.731-1.974c-0.951-0.512-3.583-1.682-2.047-2.12
	c1.535-0.439,2.34,0.512,3.802,0c1.462-0.512,3.656-0.366,2.998,0.439s-2.559,1.535-2.632,2.194
	C39.644,40.092,38.913,42.139,38.328,40.896z"/>
<path fill="#CD99C5" d="M26.504,25.214c0,0,2.931-7.621,4.572-5.51c1.641,2.11,2.345,3.517,2.345,3.517
	C28.314,24.529,28.514,24.462,26.504,25.214z"/>
<path fill="#CD99C5" d="M53.557,25.214c0,0-2.931-7.621-4.572-5.51s-2.345,3.517-2.345,3.517
	C51.747,24.529,51.547,24.462,53.557,25.214z"/>
<circle fill="#2A395B" cx="32.124" cy="39.201" r="0.616"/>
<circle fill="#2A395B" cx="27.287" cy="39.201" r="0.616"/>
<circle fill="#2A395B" cx="29.663" cy="42.711" r="0.616"/>
<circle fill="#2A395B" cx="52.013" cy="39.028" r="0.616"/>
<circle fill="#2A395B" cx="47.175" cy="39.028" r="0.616"/>
<circle fill="#2A395B" cx="49.552" cy="42.538" r="0.616"/>
<path fill="none" stroke="#2A395B" stroke-miterlimit="10" d="M38.565,39.429c0,0-0.67,10.355-9.518,6.234"/>
<path fill="none" stroke="#2A395B" stroke-miterlimit="10" d="M38.774,39.429c0,0,0.67,10.355,9.518,6.234"/>
</svg>
