<?xml version="1.0" encoding="utf-8"?>
<!-- Generator: Adobe Illustrator 17.0.0, SVG Export Plug-In . SVG Version: 6.00 Build 0)  -->
<!DOCTYPE svg PUBLIC "-//W3C//DTD SVG 1.1//EN" "http://www.w3.org/Graphics/SVG/1.1/DTD/svg11.dtd">
<svg version="1.1" id="Layer_1" xmlns="http://www.w3.org/2000/svg" xmlns:xlink="http://www.w3.org/1999/xlink" x="0px" y="0px"
	 width="78px" height="78px" viewBox="0 0 78 78" enable-background="new 0 0 78 78" xml:space="preserve">
<rect fill="#91B0C1" width="78" height="78"/>
<image overflow="visible" width="114" height="119" xlink:href="CA34D3D4.jpg"  transform="matrix(1 0 0 1 162.25 -5.7848)">
</image>
<path fill="#C7D4E2" d="M74.161,78c0.23-2.207,0.351-4.73,0.351-7.626c0-10.135-15.717-18.35-35.105-18.35
	S4.303,60.239,4.303,70.374c0,2.833,0.073,5.36,0.211,7.626H74.161z"/>
<path fill="#3E5275" d="M16.191,56.11c0,0,4.688,13.773,4.932,21.89h35.214c0,0,1.343-15.235,6.03-21.503l-6.03-2.2
	c0,0-4.529,8.224-5.383,11.852c0,0-15.614-0.835-25.787,0c0,0-0.184-9.379-2.685-11.852L16.191,56.11z"/>
<ellipse fill="#EACEB2" cx="21.509" cy="38.23" rx="2.141" ry="4.609"/>
<ellipse fill="#EACEB2" cx="57.678" cy="38.23" rx="2.141" ry="4.609"/>
<path fill="#EACEB2" d="M57.157,37.901c0,11.23-3.565,20.334-17.824,20.334s-17.824-9.104-17.824-20.334s3.565-20.334,17.824-20.334
	S57.157,26.67,57.157,37.901z"/>
<circle fill="#FFFFFF" cx="33.004" cy="34.929" r="3.775"/>
<circle fill="#2A395B" cx="33.004" cy="34.929" r="1.308"/>
<circle fill="#FFFFFF" cx="44.895" cy="34.929" r="3.775"/>
<circle fill="#2A395B" cx="44.895" cy="34.929" r="1.308"/>
<path fill="#3E5275" d="M39.191,27.598c5.697,0,10.85,1.309,14.567,3.422c0.016-0.245,0.043-0.487,0.043-0.735
	c0-7.024-6.541-12.719-14.61-12.719s-14.61,5.694-14.61,12.719c0,0.248,0.027,0.49,0.043,0.735
	C28.341,28.907,33.494,27.598,39.191,27.598z"/>
<path fill="#3E5275" d="M51.007,11.524c-2.181-1.974-3.566-2.338-12.15-2.561c-8.583-0.223-9.969,0.587-12.15,2.561
	c-1.059,0.959-1.971,2.201-2.762,3.567c-2.564,4.429-2.117,13.227-2.488,15.242c4.501-3.988,10.186-7.081,16.992-7.081
	c7.16,0,12.915,3.152,18.399,6.289c-0.325-1.819-0.431-9.874-3.08-14.45C52.979,13.725,52.067,12.483,51.007,11.524z"/>
<g>
	<path fill="#3E5275" d="M42.501,45.171c2.124,0.45,3.878,0.969,4.304,0.119c0.631-1.261-1.763-2.063-1.763-2.063
		c-2.091-0.806-4.026-1.084-5.718-1.086c-0.056,0-0.115-0.004-0.17-0.004c-0.055,0-0.114,0.004-0.17,0.004
		c-1.693,0.003-3.627,0.28-5.718,1.086c0,0-2.393,0.801-1.763,2.063c0.425,0.85,2.168,0.269,4.304-0.119
		C35.807,45.171,38.903,44.41,42.501,45.171z"/>
</g>
<path fill="#CEAE91" d="M38.7,48.853c-1.238,0-2.354-0.338-3.15-0.88c-0.015,0.105-0.038,0.209-0.038,0.318
	c0,1.498,1.427,2.712,3.188,2.712c1.761,0,3.188-1.214,3.188-2.712c0-0.109-0.023-0.212-0.038-0.318
	C41.054,48.515,39.938,48.853,38.7,48.853z"/>
</svg>
