<?xml version="1.0" encoding="utf-8"?>
<!-- Generator: Adobe Illustrator 17.0.0, SVG Export Plug-In . SVG Version: 6.00 Build 0)  -->
<!DOCTYPE svg PUBLIC "-//W3C//DTD SVG 1.1//EN" "http://www.w3.org/Graphics/SVG/1.1/DTD/svg11.dtd">
<svg version="1.1" xmlns="http://www.w3.org/2000/svg" xmlns:xlink="http://www.w3.org/1999/xlink" x="0px" y="0px" width="500px"
	 height="300px" viewBox="0 0 500 300" enable-background="new 0 0 500 300" xml:space="preserve">
<g id="Layer_1">
	<rect y="0" fill="#31404E" width="500" height="300"/>
	
		<image overflow="visible" width="1280" height="984" xlink:href="5DEED043.jpg"  transform="matrix(1 0 0 1 -468.6013 -1306.9281)">
	</image>
	<line fill="none" stroke="#586A77" stroke-miterlimit="10" x1="24.285" y1="300" x2="24.285" y2="0"/>
	<line fill="none" stroke="#586A77" stroke-miterlimit="10" x1="61.444" y1="300" x2="61.444" y2="0"/>
	<line fill="none" stroke="#586A77" stroke-miterlimit="10" x1="98.602" y1="300" x2="98.602" y2="0"/>
	<line fill="none" stroke="#586A77" stroke-miterlimit="10" x1="135.761" y1="300" x2="135.761" y2="0"/>
	<line fill="none" stroke="#586A77" stroke-miterlimit="10" x1="172.919" y1="300" x2="172.919" y2="0"/>
	<line fill="none" stroke="#586A77" stroke-miterlimit="10" x1="210.078" y1="300" x2="210.078" y2="0"/>
	<line fill="none" stroke="#586A77" stroke-miterlimit="10" x1="247.236" y1="300" x2="247.236" y2="0"/>
	<line fill="none" stroke="#586A77" stroke-miterlimit="10" x1="284.394" y1="300" x2="284.394" y2="0"/>
	<line fill="none" stroke="#586A77" stroke-miterlimit="10" x1="321.553" y1="300" x2="321.553" y2="0"/>
	<line fill="none" stroke="#586A77" stroke-miterlimit="10" x1="358.711" y1="300" x2="358.711" y2="0"/>
	<line fill="none" stroke="#586A77" stroke-miterlimit="10" x1="395.87" y1="300" x2="395.87" y2="0"/>
	<line fill="none" stroke="#586A77" stroke-miterlimit="10" x1="433.028" y1="300" x2="433.028" y2="0"/>
	<line fill="none" stroke="#586A77" stroke-miterlimit="10" x1="470.187" y1="300" x2="470.187" y2="0"/>
	<path fill="none" stroke="#C4C8D5" stroke-miterlimit="10" d="M544.504,320.296"/>
	<path fill="none" stroke="#C4C8D5" stroke-miterlimit="10" d="M581.662,317.294"/>
	<path fill="none" stroke="#C4C8D5" stroke-miterlimit="10" d="M618.82,317.294"/>
	<path fill="none" stroke="#C4C8D5" stroke-miterlimit="10" d="M655.979,317.294"/>
	<line fill="none" stroke="#586A77" stroke-miterlimit="10" x1="500" y1="262.99" x2="0" y2="262.99"/>
	<line fill="none" stroke="#586A77" stroke-miterlimit="10" x1="500" y1="225.831" x2="0" y2="225.831"/>
	<line fill="none" stroke="#586A77" stroke-miterlimit="10" x1="500" y1="188.673" x2="0" y2="188.673"/>
	<line fill="none" stroke="#586A77" stroke-miterlimit="10" x1="500" y1="151.514" x2="0" y2="151.514"/>
	<line fill="none" stroke="#586A77" stroke-miterlimit="10" x1="500" y1="114.356" x2="0" y2="114.356"/>
	<line fill="none" stroke="#586A77" stroke-miterlimit="10" x1="500" y1="77.197" x2="0" y2="77.197"/>
	<line fill="none" stroke="#586A77" stroke-miterlimit="10" x1="500" y1="40.039" x2="0" y2="40.039"/>
</g>
<g id="Layer_2">
	<polygon fill="none" stroke="#BAD6DD" stroke-width="1.5" stroke-miterlimit="10" points="210.078,68.786 98.602,225.966 
		210.078,225.966 	"/>
	
		<line fill="none" stroke="#BAD6DD" stroke-width="1.5" stroke-miterlimit="10" x1="91.58" y1="218.944" x2="105.625" y2="232.989"/>
	
		<line fill="none" stroke="#BAD6DD" stroke-width="1.5" stroke-miterlimit="10" x1="91.58" y1="232.989" x2="105.625" y2="218.944"/>
	
		<line fill="none" stroke="#BAD6DD" stroke-width="1.5" stroke-miterlimit="10" x1="128.738" y1="218.944" x2="142.783" y2="232.989"/>
	
		<line fill="none" stroke="#BAD6DD" stroke-width="1.5" stroke-miterlimit="10" x1="128.738" y1="232.989" x2="142.783" y2="218.944"/>
	
		<line fill="none" stroke="#BAD6DD" stroke-width="1.5" stroke-miterlimit="10" x1="165.897" y1="218.944" x2="179.942" y2="232.989"/>
	
		<line fill="none" stroke="#BAD6DD" stroke-width="1.5" stroke-miterlimit="10" x1="165.897" y1="232.989" x2="179.942" y2="218.944"/>
	
		<line fill="none" stroke="#BAD6DD" stroke-width="1.5" stroke-miterlimit="10" x1="203.055" y1="218.944" x2="217.1" y2="232.989"/>
	
		<line fill="none" stroke="#BAD6DD" stroke-width="1.5" stroke-miterlimit="10" x1="203.055" y1="232.989" x2="217.1" y2="218.944"/>
	
		<line fill="none" stroke="#BAD6DD" stroke-width="1.5" stroke-miterlimit="10" x1="128.738" y1="181.785" x2="142.783" y2="195.83"/>
	
		<line fill="none" stroke="#BAD6DD" stroke-width="1.5" stroke-miterlimit="10" x1="128.738" y1="195.83" x2="142.783" y2="181.785"/>
	
		<line fill="none" stroke="#BAD6DD" stroke-width="1.5" stroke-miterlimit="10" x1="165.897" y1="181.785" x2="179.942" y2="195.83"/>
	
		<line fill="none" stroke="#BAD6DD" stroke-width="1.5" stroke-miterlimit="10" x1="165.897" y1="195.83" x2="179.942" y2="181.785"/>
	<line fill="none" stroke="#BAD6DD" stroke-width="1.5" stroke-miterlimit="10" x1="203.055" y1="181.785" x2="217.1" y2="195.83"/>
	<line fill="none" stroke="#BAD6DD" stroke-width="1.5" stroke-miterlimit="10" x1="203.055" y1="195.83" x2="217.1" y2="181.785"/>
	
		<line fill="none" stroke="#BAD6DD" stroke-width="1.5" stroke-miterlimit="10" x1="165.897" y1="144.627" x2="179.942" y2="158.672"/>
	
		<line fill="none" stroke="#BAD6DD" stroke-width="1.5" stroke-miterlimit="10" x1="165.897" y1="158.672" x2="179.942" y2="144.627"/>
	
		<line fill="none" stroke="#BAD6DD" stroke-width="1.5" stroke-miterlimit="10" x1="203.055" y1="144.627" x2="217.1" y2="158.672"/>
	
		<line fill="none" stroke="#BAD6DD" stroke-width="1.5" stroke-miterlimit="10" x1="203.055" y1="158.672" x2="217.1" y2="144.627"/>
	
		<line fill="none" stroke="#BAD6DD" stroke-width="1.5" stroke-miterlimit="10" x1="203.055" y1="107.468" x2="217.1" y2="121.513"/>
	
		<line fill="none" stroke="#BAD6DD" stroke-width="1.5" stroke-miterlimit="10" x1="203.055" y1="121.513" x2="217.1" y2="107.468"/>
	<line fill="none" stroke="#BAD6DD" stroke-width="1.5" stroke-miterlimit="10" x1="203.055" y1="70.31" x2="217.1" y2="84.355"/>
	<line fill="none" stroke="#BAD6DD" stroke-width="1.5" stroke-miterlimit="10" x1="203.055" y1="84.355" x2="217.1" y2="70.31"/>
	<g>
		<path fill="#BAD6DD" d="M249.863,152.957l0.297-2.504l13.89-15.215l-9.671-15.07l0.337-2.841h22.196l-0.411,3.466h-16.804
			l-0.023,0.193l9.015,14.107l-12.952,14.204l-0.017,0.144h18.874l-0.417,3.515H249.863z"/>
		<path fill="#BAD6DD" d="M291.018,146.273l-0.025,0.118c0,0.345,0.26,0.65,0.777,0.917c0.517,0.267,1.033,0.416,1.552,0.447
			l-0.094,0.869h-9.097l0.093-0.869c0.565,0,1.081-0.126,1.552-0.377c0.674-0.376,1.074-0.744,1.199-1.105H291.018z M290.43,148.623
			h-4.044l0.401-1.552c2.318-9.465,3.556-14.471,3.713-15.02c-0.314,0.204-1.489,0.768-3.526,1.692l-0.823-1.152
			c1.897-0.877,3.401-1.673,4.514-2.386c1.112-0.713,1.896-1.203,2.35-1.469h1.951L290.43,148.623z"/>
		<path fill="#BAD6DD" d="M303.547,146.273l-0.025,0.118c0,0.345,0.26,0.65,0.777,0.917c0.517,0.267,1.033,0.416,1.552,0.447
			l-0.094,0.869h-9.097l0.093-0.869c0.565,0,1.081-0.126,1.552-0.377c0.674-0.376,1.074-0.744,1.199-1.105H303.547z M302.96,148.623
			h-4.044l0.401-1.552c2.318-9.465,3.556-14.471,3.713-15.02c-0.314,0.204-1.489,0.768-3.526,1.692l-0.823-1.152
			c1.897-0.877,3.401-1.673,4.514-2.386c1.112-0.713,1.896-1.203,2.35-1.469h1.951L302.96,148.623z"/>
		<path fill="#BAD6DD" d="M328.862,145.732c-1.645,2.179-3.611,3.267-5.9,3.267c-1.536,0-2.836-0.56-3.902-1.681
			c-1.065-1.12-1.598-2.55-1.598-4.29c0-2.335,0.878-4.352,2.633-6.053c1.755-1.7,3.722-2.55,5.9-2.55
			c1.128,0,2.095,0.224,2.903,0.67c0.807,0.447,1.328,1.055,1.563,1.822c0.72-2.962,1.758-6.397,3.113-10.307
			c1.356-3.91,2.605-6.985,3.749-9.226h3.761c-1.457,2.883-3.251,7.769-5.382,14.657c-2.132,6.887-3.198,11.193-3.198,12.916
			c0,0.611,0.126,0.917,0.377,0.917c0.626,0,1.629-0.995,3.008-2.986l1.012,0.941c-0.987,1.755-2.045,3.055-3.173,3.902
			c-1.129,0.846-2.034,1.269-2.716,1.269c-0.682,0-1.215-0.247-1.598-0.74c-0.385-0.494-0.576-1.211-0.576-2.151
			c0-0.031,0.004-0.09,0.012-0.176C328.859,145.846,328.862,145.779,328.862,145.732z M321.716,142.888
			c0,2.523,0.971,3.785,2.915,3.785c1.819,0,3.315-1.214,4.49-3.644c0.549-1.143,0.823-2.068,0.823-2.773
			c0-2.539-0.964-3.808-2.891-3.808c-1.285,0-2.495,0.591-3.632,1.774C322.283,139.406,321.716,140.96,321.716,142.888z"/>
		<path fill="#BAD6DD" d="M351.839,145.874c-0.775,0.925-1.798,1.676-3.067,2.256c-1.27,0.579-2.735,0.869-4.395,0.869
			c-1.662,0-3.068-0.494-4.22-1.481c-1.152-0.988-1.729-2.241-1.729-3.761c0-0.173,0.032-0.494,0.094-0.964
			c0.643-4.31,1.81-9.031,3.502-14.163c1.692-5.132,3.51-8.959,5.453-11.483h3.996c-1.174,1.317-2.582,4.114-4.22,8.392
			c-1.637,4.278-2.958,8.494-3.96,12.646c1.896-2.507,4.026-3.761,6.392-3.761c1.473,0,2.605,0.498,3.398,1.493
			c0.791,0.995,1.186,2.135,1.186,3.42c0,1.285-0.21,2.465-0.634,3.538C353.215,143.95,352.615,144.949,351.839,145.874z
			 M342.567,142.794c-0.126,0.658-0.189,1.297-0.189,1.915c0,0.62,0.226,1.246,0.682,1.88c0.454,0.635,1.151,0.952,2.092,0.952
			s1.801-0.407,2.585-1.222c1.505-1.583,2.257-3.674,2.257-6.276c0-1.065-0.18-1.939-0.54-2.621
			c-0.361-0.682-0.917-1.023-1.669-1.023c-0.753,0-1.69,0.603-2.81,1.81C343.854,139.417,343.051,140.945,342.567,142.794z"/>
	</g>
	<polyline fill="none" stroke="#BAD6DD" stroke-width="2" stroke-miterlimit="10" points="284.131,168.592 307.495,199.062 
		420.244,107.468 	"/>
</g>
</svg>
