<?xml version="1.0" encoding="utf-8"?>
<!-- Generator: Adobe Illustrator 17.0.0, SVG Export Plug-In . SVG Version: 6.00 Build 0)  -->
<!DOCTYPE svg PUBLIC "-//W3C//DTD SVG 1.1//EN" "http://www.w3.org/Graphics/SVG/1.1/DTD/svg11.dtd">
<svg version="1.1" id="Layer_1" xmlns="http://www.w3.org/2000/svg" xmlns:xlink="http://www.w3.org/1999/xlink" x="0px" y="0px"
	 width="78px" height="78px" viewBox="0 0 78 78" enable-background="new 0 0 78 78" xml:space="preserve">
<rect fill="#91AFC0" width="78" height="78"/>
<path fill="#3F5376" d="M74.831,78c0.23-2.312,0.351-4.955,0.351-7.988c0-10.616-15.717-19.222-35.105-19.222
	S4.973,59.395,4.973,70.012c0,2.968,0.073,5.615,0.211,7.988H74.831z"/>
<path fill="#23364C" d="M28.75,78c0,0-8.424-16.854-8.712-23.927c0,0,6.69-3.077,20.039-3.283c16.13-0.249,21.989,4.05,21.989,4.05
	L54.029,78H28.75z"/>
<path fill="#CAD6E9" d="M34.189,78c0,0-4.7-16.854-4.86-23.927c0,0,3.732-3.077,11.18-3.283c8.999-0.249,12.268,4.05,12.268,4.05
	L48.292,78H34.189z"/>
<ellipse fill="#E9CEB2" cx="22.179" cy="36.996" rx="2.141" ry="4.609"/>
<ellipse fill="#E9CEB2" cx="58.348" cy="36.996" rx="2.141" ry="4.609"/>
<path fill="#E9CEB2" d="M57.827,36.667c0,11.23-3.565,20.334-17.824,20.334s-17.824-9.104-17.824-20.334s3.565-20.334,17.824-20.334
	S57.827,25.436,57.827,36.667z"/>
<circle fill="#FFFFFF" cx="34.028" cy="34.049" r="2.753"/>
<circle fill="#2A395B" cx="34.028" cy="34.049" r="0.954"/>
<circle fill="#FFFFFF" cx="46.384" cy="34.049" r="2.753"/>
<circle fill="#2A395B" cx="46.384" cy="34.049" r="0.954"/>
<path fill="#C09F83" d="M33.109,48.039c0,0,3.693-1.619,3.598-4.427L33.109,48.039z"/>
<path fill="#C09F83" d="M27.5,30.921c0,0,6.083-2.217,9.208-1.569v-2.351c0,0-6.875,1.036-8.542,2.351L27.5,30.921z"/>
<path fill="#C09F83" d="M52.21,30.921c0,0-6.083-2.217-9.208-1.569v-2.351c0,0,6.875,1.036,8.542,2.351L52.21,30.921z"/>
<polygon fill="#F2F3F5" points="30.811,63.68 39,58.022 38.006,55.746 27.685,52.359 28.954,64.39 "/>
<polygon fill="#F2F3F5" points="50.226,63.68 41.748,58.022 42.776,55.746 53.463,52.359 52.149,64.39 "/>
<path fill="#3F5376" d="M33.347,63.16c0,0-1.279-4.335,0-7.91c0,0,5.245,0.967,7.291,3.301l-0.512,2.004
	C40.126,60.555,35.138,63.004,33.347,63.16z"/>
<path fill="#3F5376" d="M48.041,63.16c0,0,1.279-4.335,0-7.91c0,0-5.245,0.967-7.291,3.301l0.512,2.004
	C41.262,60.555,46.25,63.004,48.041,63.16z"/>
<ellipse fill="#23364C" cx="40.819" cy="59.231" rx="1.819" ry="1.972"/>
<polyline fill="#6D5F5A" points="24.588,19.665 22.447,0 58.616,0 54.297,21.283 "/>
<path fill="#6D5F5A" d="M40,17.071c-11.273,0-20.411,2.008-20.411,4.484c0,1.109,1.836,2.123,4.871,2.906
	c2.331-1.748,8.399-2.998,15.54-2.998s13.209,1.249,15.54,2.998c3.035-0.783,4.871-1.797,4.871-2.906
	C60.411,19.079,51.273,17.071,40,17.071z"/>
<path fill="#C09F83" d="M35.699,46.585c0,0,3.036,2.876,9.731,0.945l-0.75-1.779c0,0-7.972,1.202-9.771,0.068"/>
<ellipse transform="matrix(0.996 0.089 -0.089 0.996 4.5266 -4.6182)" fill="#6D5F5A" cx="54.029" cy="48.43" rx="12.439" ry="3.051"/>
<path fill="#CAD6E9" d="M65.083,45.826c0,0,4.167-4.409,2.083-9.909c-2.083-5.5-2-8.833,0.083-11.833c0,0-6.035,3.426-5.184,7.838
	c0.851,4.412,2.268,7.495,2.268,9.245S65.083,45.826,65.083,45.826z"/>
</svg>
