<?xml version="1.0" encoding="utf-8"?>
<!-- Generator: Adobe Illustrator 17.0.0, SVG Export Plug-In . SVG Version: 6.00 Build 0)  -->
<!DOCTYPE svg PUBLIC "-//W3C//DTD SVG 1.1//EN" "http://www.w3.org/Graphics/SVG/1.1/DTD/svg11.dtd">
<svg version="1.1" xmlns="http://www.w3.org/2000/svg" xmlns:xlink="http://www.w3.org/1999/xlink" x="0px" y="0px" width="500px"
	 height="239.697px" viewBox="0 0 500 239.697" enable-background="new 0 0 500 239.697" xml:space="preserve">
<g id="Layer_1">
	<rect y="0" fill="#31404E" width="500" height="239.697"/>
	<rect x="51.036" y="42.03" fill="none" stroke="#586A77" stroke-miterlimit="10" width="90" height="150"/>
	<line fill="none" stroke="#586A77" stroke-miterlimit="10" x1="81.036" y1="192.03" x2="81.036" y2="42.03"/>
	<line fill="none" stroke="#586A77" stroke-miterlimit="10" x1="111.036" y1="192.03" x2="111.036" y2="42.03"/>
	<line fill="none" stroke="#586A77" stroke-miterlimit="10" x1="51.036" y1="72.03" x2="141.036" y2="72.03"/>
	<line fill="none" stroke="#586A77" stroke-miterlimit="10" x1="51.036" y1="102.03" x2="141.036" y2="102.03"/>
	<line fill="none" stroke="#586A77" stroke-miterlimit="10" x1="51.036" y1="132.03" x2="141.036" y2="132.03"/>
	<line fill="none" stroke="#586A77" stroke-miterlimit="10" x1="51.036" y1="162.03" x2="141.036" y2="162.03"/>
	<g>
		<path fill="#BAD6DD" d="M91.327,149.921l1.376-1.281c0.8,0.944,1.697,1.473,2.945,1.473c1.104,0,1.937-0.672,1.937-1.696v-0.032
			c0-1.104-1.008-1.729-2.577-1.729h-0.912l-0.32-1.232l3.025-3.218h-4.85v-1.712h7.411v1.473l-3.122,3.201
			c1.697,0.208,3.297,1.072,3.297,3.137v0.032c0,2.064-1.584,3.554-3.921,3.554C93.664,151.889,92.271,151.073,91.327,149.921z"/>
	</g>
	<g>
		<path fill="#BAD6DD" d="M91.463,120.81l3.858-3.281c1.537-1.313,2.097-2.017,2.097-3.025c0-1.104-0.784-1.744-1.809-1.744
			s-1.729,0.56-2.577,1.681l-1.409-1.104c1.072-1.489,2.129-2.337,4.13-2.337c2.193,0,3.697,1.344,3.697,3.345v0.032
			c0,1.761-0.928,2.721-2.913,4.338l-2.305,1.921h5.331v1.729h-8.1V120.81z"/>
	</g>
	<g>
		<path fill="#BAD6DD" d="M121.519,150.144l3.858-3.281c1.537-1.313,2.097-2.017,2.097-3.025c0-1.104-0.784-1.744-1.809-1.744
			s-1.729,0.56-2.577,1.681l-1.409-1.104c1.072-1.489,2.129-2.337,4.13-2.337c2.193,0,3.697,1.344,3.697,3.345v0.032
			c0,1.761-0.928,2.721-2.913,4.338l-2.305,1.921h5.331v1.729h-8.1V150.144z"/>
	</g>
	<g>
		<path fill="#BAD6DD" d="M125.32,113.079l-2.017,0.561l-0.417-1.601l3.025-0.96h1.36v11.284h-1.953V113.079z"/>
	</g>
	<rect x="201.13" y="42.03" fill="none" stroke="#586A77" stroke-miterlimit="10" width="90" height="150"/>
	<line fill="none" stroke="#586A77" stroke-miterlimit="10" x1="231.13" y1="192.03" x2="231.13" y2="42.03"/>
	<line fill="none" stroke="#586A77" stroke-miterlimit="10" x1="261.13" y1="192.03" x2="261.13" y2="42.03"/>
	<line fill="none" stroke="#586A77" stroke-miterlimit="10" x1="201.13" y1="72.03" x2="291.13" y2="72.03"/>
	<line fill="none" stroke="#586A77" stroke-miterlimit="10" x1="201.13" y1="102.03" x2="291.13" y2="102.03"/>
	<line fill="none" stroke="#586A77" stroke-miterlimit="10" x1="201.13" y1="132.03" x2="291.13" y2="132.03"/>
	<line fill="none" stroke="#586A77" stroke-miterlimit="10" x1="201.13" y1="162.03" x2="291.13" y2="162.03"/>
	<g>
		<path fill="#BAD6DD" d="M246.816,149.184h-5.65l-0.368-1.409l6.227-7.362h1.681v7.154h1.601v1.617h-1.601v2.513h-1.889V149.184z
			 M246.816,147.567v-4.434l-3.682,4.434H246.816z"/>
	</g>
	<g>
		<path fill="#BAD6DD" d="M245.358,173.257l-2.017,0.561l-0.416-1.601l3.025-0.96h1.36v11.284h-1.953V173.257z"/>
	</g>
	<g>
		<path fill="#BAD6DD" d="M424.926,113.079l-2.017,0.561l-0.416-1.601l3.025-0.96h1.36v11.284h-1.953V113.079z"/>
	</g>
	<g>
		<path fill="#BAD6DD" d="M391.652,120.81l3.858-3.281c1.536-1.313,2.097-2.017,2.097-3.025c0-1.104-0.784-1.744-1.809-1.744
			s-1.729,0.56-2.577,1.681l-1.409-1.104c1.072-1.489,2.129-2.337,4.13-2.337c2.193,0,3.697,1.344,3.697,3.345v0.032
			c0,1.761-0.928,2.721-2.913,4.338l-2.305,1.921h5.33v1.729h-8.1V120.81z"/>
	</g>
	<g>
		<path fill="#BAD6DD" d="M241.051,120.81l3.857-3.281c1.537-1.313,2.097-2.017,2.097-3.025c0-1.104-0.784-1.744-1.809-1.744
			s-1.729,0.56-2.577,1.681l-1.408-1.104c1.072-1.489,2.129-2.337,4.13-2.337c2.192,0,3.697,1.344,3.697,3.345v0.032
			c0,1.761-0.929,2.721-2.913,4.338l-2.306,1.921h5.331v1.729h-8.1V120.81z"/>
	</g>
	<g>
		<path fill="#BAD6DD" d="M271.096,150.144l3.857-3.281c1.537-1.313,2.097-2.017,2.097-3.025c0-1.104-0.784-1.744-1.809-1.744
			s-1.729,0.56-2.577,1.681l-1.408-1.104c1.072-1.489,2.129-2.337,4.13-2.337c2.192,0,3.697,1.344,3.697,3.345v0.032
			c0,1.761-0.929,2.721-2.913,4.338l-2.306,1.921h5.331v1.729h-8.1V150.144z"/>
	</g>
	<g>
		<path fill="#BAD6DD" d="M274.39,113.079l-2.017,0.561l-0.416-1.601l3.025-0.96h1.36v11.284h-1.953V113.079z"/>
	</g>
	<rect x="351.225" y="42.03" fill="none" stroke="#586A77" stroke-miterlimit="10" width="90" height="150"/>
	<line fill="none" stroke="#586A77" stroke-miterlimit="10" x1="381.225" y1="192.03" x2="381.225" y2="42.03"/>
	<line fill="none" stroke="#586A77" stroke-miterlimit="10" x1="411.225" y1="192.03" x2="411.225" y2="42.03"/>
	<line fill="none" stroke="#586A77" stroke-miterlimit="10" x1="351.225" y1="72.03" x2="441.225" y2="72.03"/>
	<line fill="none" stroke="#586A77" stroke-miterlimit="10" x1="351.225" y1="102.03" x2="441.225" y2="102.03"/>
	<line fill="none" stroke="#586A77" stroke-miterlimit="10" x1="351.225" y1="132.03" x2="441.225" y2="132.03"/>
	<line fill="none" stroke="#586A77" stroke-miterlimit="10" x1="351.225" y1="162.03" x2="441.225" y2="162.03"/>
	<g>
		<path fill="#BAD6DD" d="M395.452,142.413l-2.017,0.561l-0.416-1.601l3.025-0.96h1.36v11.284h-1.953V142.413z"/>
	</g>
	<g>
		<path fill="#BAD6DD" d="M365.914,142.413l-2.017,0.561l-0.416-1.601l3.025-0.96h1.36v11.284h-1.953V142.413z"/>
	</g>
	<g>
		<path fill="#BAD6DD" d="M395.452,173.257l-2.017,0.561l-0.416-1.601l3.025-0.96h1.36v11.284h-1.953V173.257z"/>
	</g>
	<g>
		<path fill="#BAD6DD" d="M421.498,150.144l3.857-3.281c1.537-1.313,2.097-2.017,2.097-3.025c0-1.104-0.784-1.744-1.809-1.744
			s-1.729,0.56-2.577,1.681l-1.408-1.104c1.072-1.489,2.129-2.337,4.13-2.337c2.192,0,3.697,1.344,3.697,3.345v0.032
			c0,1.761-0.929,2.721-2.913,4.338l-2.306,1.921h5.331v1.729h-8.1V150.144z"/>
	</g>
	
		<line fill="none" stroke="#BAD6DD" stroke-width="1.5" stroke-miterlimit="10" x1="156.065" y1="120.362" x2="184.065" y2="120.362"/>
	<polyline fill="none" stroke="#BAD6DD" stroke-width="1.5" stroke-miterlimit="10" points="171.351,107.678 184.035,120.362 
		171.351,133.046 	"/>
	
		<line fill="none" stroke="#BAD6DD" stroke-width="1.5" stroke-miterlimit="10" x1="306.122" y1="120.362" x2="334.122" y2="120.362"/>
	<polyline fill="none" stroke="#BAD6DD" stroke-width="1.5" stroke-miterlimit="10" points="321.408,107.678 334.092,120.362 
		321.408,133.046 	"/>
</g>
<g id="Layer_2">
</g>
</svg>
